<svg xmlns="http://www.w3.org/2000/svg" viewBox="0 0 1440 350">
  <path fill="#161b2f" fill-rule="evenodd" stroke="#161b2f" stroke-linejoin="round" stroke-width=".25" d="M.11 66.7V54.51c2.3-6.55 1.2-17.78 1.69-25.02.2-2.98-.59-7.63 2.14-9.68 2.82-2.11 7.79 1.33 10.81 1.97 8.22 1.74 17.39.69 25.75.69 12.24 0 24.89.92 37.08-.14 3.19-.28 11.84-3.96 14.01-2.84 3.43 1.77 2.71 8.07 2.86 11.29.36 8 2.83 29.19 1.14 35.7-5.71 3.84-6.14-4.69-6.59-8.51C87.57 45.71 81.67 33.11 69.1 29c-3-.98-7.49-1.87-10.53-.61-3.21 1.34-2.69 5.41-2.69 8.23.01 8.2 0 16.41 0 24.62v74.53c0 7.4-1.36 27.74.43 33.68 2.39 7.94 17.74 2.14 19.7 9.09-2.45 3.34-9.09 1.94-12.82 1.94H33.38c-4.01 0-9.51 1-12.97-1.14-.66-4.03 2.75-3.77 5.84-4.37 4.74-.93 12.33-.36 13.7-6.28 1.62-7.02.33-18.91.33-26.44V87.81c0-14.04.01-28.08.01-42.12 0-4.25 1.55-12.3-1.06-15.9-2.57-3.56-10.03-1.75-13.44-.37-9.61 3.88-15.15 12.89-17.64 22.5-1.14 4.4-.31 12.36-3.94 15.41zm766.23.8c-6.4-.08-5.12-10.44-6.36-15.21-3.11-12-14.07-28.18-28.96-24.07-3.74 1.03-3.15 5.43-3.15 8.4-.01 8.2.01 16.41.01 24.62v96.56c0 3.5-.51 7.45.15 10.89 1.73 9.02 18.19 2.78 19.97 9.85-2.26 3.26-8.56 1.94-12.12 1.94h-32.41c-3.48 0-9.26 1.21-11.48-1.94 1.77-7.1 18.31-.79 19.99-9.83.64-3.45.13-7.4.13-10.91V61.24c0-8.21.03-16.42.02-24.62 0-2.95.59-7.38-3.13-8.41-14.83-4.08-25.72 12.29-28.93 24.15-1.12 4.15-.35 17.11-7.05 14.7-2.27-3.58-.31-14.18-.23-18.78.12-6.71.95-13.38 1.11-20.09.06-2.61-.43-6.1 1.69-8.11 2.37-2.24 10.82 1.81 14.26 2.19 13.74 1.51 28.31.2 42.14.2 6.98 0 14.37.7 21.25-.67 2.82-.56 7.68-3.8 10.39-2.3 3.4 1.88 2.42 7.48 2.54 10.64.35 8.83.78 17.74 1.36 26.57.23 3.55 1.65 8.16-1.19 10.79Zm315.75-47.14c21.3-3.02 37.26 15.24 45.33 32.65 14.21 30.66 13.23 70.59-1.95 100.68-7.26 14.4-20.7 28.2-37.69 28.67-21.88.61-36.82-18.75-43.98-37.35-11.32-29.38-11.24-66.6 3.3-94.94 7.11-13.86 18.65-27.38 34.99-29.71Zm251.3 47.44c-4.26-.96-4.86-8.78-5.97-12.48-2.63-8.71-5.99-20.9-14.2-26.09-2.72-1.72-5.81-2.27-8.99-2.31-18.32-.22-24.9 18.31-19.16 33.66 5.13 13.69 18.89 22.36 29.39 31.59 16.42 14.45 28.72 29.66 27.73 52.67-.27 6.27-1.86 12.27-4.99 17.73-9.97 17.39-29.94 21.89-48.5 18.71-4.45-.76-15.33-2.43-18.01-6.44-1.83-2.73-1.51-17.45-1.61-21.57-.1-4.3-1.52-17.08.8-20.15 1.15-.23 1.9-.63 3.06-.06 2.3 1.13 4.42 14 5.19 16.93 1.91 7.24 5.78 15.73 11.66 20.63 10.89 9.07 28.23 6.69 35.18-5.98 2.63-4.79 3.64-10.5 3.68-15.91.25-33.76-29.5-43.12-48.16-64.71-10.96-12.68-15.75-32.16-6.01-47 9.44-14.4 28.18-18.99 44.33-15.96 4.89.92 12.66 2.5 15.56 7.13 1.54 2.44.92 6.29.94 9.07.04 7.14.18 14.26.37 21.39.08 3.16 1.17 7.64-2.29 9.15ZM149.59 25.6c-3.4 4.35-11.18.72-14.5 5.45-2.68 3.83-1.2 11.48-1.2 15.93v32.41c0 4.61-1 10.63.58 14.96 3.27 1.93 7.95 1.08 11.67 1.08 8.42-.01 16.85 0 25.27 0 3.51 0 8.34.93 11.31-1.14 1.67-4.17.59-10.39.59-14.9V46.98c0-4.49 1.42-11.72-1.07-15.66-3.16-5.03-11.25-1.26-14.48-5.72.68-4.72 7.03-3.12 10.78-3.12h23.33c3.7 0 8.18-.7 11.67.6 3.35 6.54-11.89 3.52-14.1 9.51-1.24 3.36-.39 8.24-.39 11.8v92.68c0 9-1.28 24.05.13 32.34 1.32 7.75 14.88 3 15.01 9.47-2.24 2.72-7.76 1.6-11.02 1.6h-23.98c-3.56 0-7.8.69-11.02-.97-1.8-7.23 12.72-2.12 14.89-9.74 1.33-4.67.25-11 .25-15.85v-33.06c0-4.67 1.21-14.27-.82-18.14-3.32-1.63-8.08-.77-11.72-.77h-24.63c-3.67-.01-8.39-.9-11.67.92-1.46 4.86-.57 10.96-.57 16.05v32.4c0 5.21-1.23 14.54.5 19.23 2.43 6.59 14.04 1.56 15.22 7.99-2.06 2.94-6.75 1.95-9.96 1.95-8.86 0-17.72-.01-26.57-.01-3.34 0-8.12 1.04-10.25-1.94 2.12-6.2 13.12-1.51 14.98-8.49 1.52-5.67.28-22.89.28-29.74V46.98c0-4.4.86-9.88-.31-14.15-1.93-7.07-13.33-2.01-14.87-8.53 2.06-2.82 6.33-1.82 9.52-1.82h27.22c3.56 0 9.29-1.43 9.93 3.12Zm155.97 41.84c-1.21.04-2.33.28-3.34-.59-1.73-1.48-1.74-5.48-2-7.55-.57-4.58-1.64-9.33-3.28-13.64-4.63-12.09-15.08-17.68-27.67-17.67-3.51 0-6.94.04-10.25 1.34-5.64 2.22-5.34 8.73-5.34 13.77 0 12.31.01 24.62.01 36.94 0 4.3-1.4 11.28 1.32 14.78 2.46.93 5.17.61 7.78.61 6.7 0 13.33-.38 16-7.59 1.78-4.8 1.02-15.6 6.68-16.73 3.8 2.3 2.53 7.57 2.53 11.52 0 11.02-.01 22.03-.01 33.05 0 3.97 1.46 10.2-2.52 12.43-5.37-.74-5.41-13.01-6.81-17.58-2.48-8.11-8.28-8.6-15.87-8.59-2.77 0-5.67-.41-8.21.78-2.31 4.5-.9 21.3-.9 27.22v26.57c0 4.75-.28 10.3 3.14 14.08 2.95 3.26 7.66 3.95 11.8 4.3 3.12.27 6.21.17 9.31-.26 4.12-.58 8.02-1.89 11.63-3.99 9.77-5.68 12.11-18.43 14.1-28.58.62-3.16.81-6.29 2.55-9.06h3.24c2.25 2.38 1.15 6.81 1.04 9.9-.3 8.84-.94 17.75-1.53 26.57-.19 2.93.39 8.47-2.57 10.22-3.41 2.01-14.09.8-18.33.8h-46.01c-4.39 0-15.88 1.27-19.03-1.3.07-7.26 13.66-1.29 14.97-11.02 1.43-10.58.14-24.1.14-34.99V41.8c0-3.2.6-7.32-1.06-10.25-2.84-5.01-15.32-1.51-13.81-8.14 3.73-2.21 14.12-.92 18.79-.93 14.26-.03 28.52-.01 42.77-.01 4.29 0 14.24-1.2 17.82.56 3.35 1.65 2.77 6.62 2.99 9.73.61 8.33.71 16.71 1.21 25.06.19 3.17 1.19 7.28-1.28 9.62Zm86.84-44.22c1.64 5.43-5.4 3.7-8.38 5.96-1.99 1.52-1.74 3.87-1.51 6.14.83 8.13 4.42 19.04 6.47 27.2 4.7 18.73 9.19 37.48 13.69 56.26 1.51 6.29 3.13 12.6 4.45 18.93.56 2.71.72 6.75 3.43 7.93 2.86-3.27 5.68-18.33 7.03-23.32 2.48-9.18 6.07-18.41 6.35-28.03.28-9.71-2.88-19.23-5.2-28.54-2.42-9.69-4.3-19.57-7.14-29.14-.82-2.76-1.83-6.33-4.48-7.9-2.83-1.68-7.74-.39-7.58-4.85 2-2.17 5.66-1.39 8.43-1.39h18.79c2.85 0 6.03-.54 8.43 1.02 1.28 5.97-7.62 2.41-8.67 7.33-.74 3.43.97 7.71 1.85 11 1.65 6.22 3 12.55 4.46 18.81.68 2.92.6 8.03 3.65 9.18 2.29-2.57 2.77-7.19 3.68-10.47 1.89-6.85 4.15-13.59 6.04-20.45.93-3.37 1.92-7.13 0-10.26-2.47-1.14-6.86-.9-7.13-4.35 1.73-2.25 3.81-1.81 6.48-1.81 4.54 0 18.55-1.43 21.15 1.83-1.08 4.24-5.2 2.37-8.35 4.07-2.56 1.39-3.94 5.57-4.87 8.11-2.87 7.82-4.78 16.06-7.03 24.08-2.05 7.25-5.12 14.64-5.44 22.24-.54 13.17 3.33 25.69 6.52 38.31 1.23 4.84 2.44 9.79 3.44 14.68.56 2.78.77 6.57 3.01 8.34 2.25-1.66 2.43-5.58 3.06-8.32 1.4-6.07 2.96-12.11 4.48-18.15 4.54-17.94 9.3-35.8 13.48-53.82 2-8.63 5.87-18.47 6.44-27.22.18-2.87-.09-6.48-2.92-8.07-2.97-1.67-8.2-.36-7.04-5.27 4.47-2.29 12.46-.8 17.49-.8h40.18c4.09 0 17.38-2.15 16.21 3.79-3.94 2.5-11.41.59-14.19 4.89-2.53 3.91-1.24 10.75-1.24 15.18v33.7c0 4.24-1.13 10.45.74 14.25 3.01 2.06 7.89 1.14 11.45 1.14h25.92c3.44 0 7.91.84 10.84-1.14 1.57-4.33.58-10.3.58-14.9V47.63c0-4.52 1.4-12.01-.92-16.01-3.12-5.38-11.24-1.53-14.72-6.02.76-4.56 6.4-3.12 10.05-3.12h26.57c3.26 0 7.99-1.09 10.08 1.82-1.55 6.71-13.45 1.43-15.23 9.44-1.43 6.48-.19 22.03-.19 29.45v92.02c0 4.46-.91 10.08.29 14.39 2.06 7.42 13.07 2.57 15.19 8.94-2.11 2.97-6.85 1.94-10.14 1.94h-26.57c-3.29.01-7.95 1.02-10.07-1.94 1.28-6.44 12.84-1.36 15.23-8.11 1.59-4.51.43-11.12.43-15.87v-34.34c0-5.15 1.41-12.84-.76-17.5-3.42-1.63-8.22-.79-11.96-.79-8.21 0-16.41-.01-24.62 0-3.68.01-8.94-1.09-11.87 1.44-.76 4.62-.33 9.56-.33 14.25v25.93c0 7.76-1.37 18.46.29 25.88 1.82 8.12 16.45 2.79 15.15 9.86-3.02 1.96-7.5 1.2-11.02 1.2h-23.98c-3.26 0-8.45 1.01-11.05-1.3-.13-7.22 13.81-1.53 14.8-10.37 1.31-11.81.11-24.41.11-36.29V60.59c0-6.91.01-13.82 0-20.73-.01-2.75.61-6.53-1.22-8.82-2.26-2.83-8.97-3.72-12.36-3.89-2.34-.11-5.98.44-7.76 2.03-5.49 4.9-8.51 24.94-10.32 32.53-7.12 29.75-15.45 59.18-22.28 89-1.77 7.71-3.82 15.34-5.63 23.05-.72 3.07-.91 7.2-3.91 8.8-4.68-.69-5.79-12.6-6.97-16.86-3.44-12.43-6.55-25.15-9.45-37.74-1.16-5.04-2.15-14.18-4.97-18.27-3.07 1.11-4.58 11.05-5.5 14.39-3.86 14.04-7.62 28.19-11.76 42.14-1.23 4.16-2.57 15.88-7.36 16.27-3.3-1.63-3.6-7.11-4.35-10.4-2.07-9.05-4.61-17.98-6.65-27.03-7.9-34.9-17.5-69.46-25.96-104.23-.95-3.89-2.26-9.26-6.07-11.38-3.09-1.73-10.05-.87-10.11-5.41 2.08-2.56 6.64-1.56 9.72-1.57h20.73c3.3 0 7.37-.66 10.37.75Zm272.19.07c1.82 7.46-12.62 2.44-14.36 9.54-1.59 6.49-.34 14.62-.34 21.28v92.03c0 7.55-1.33 16.55.32 23.94 1.55 6.96 16.02 2.08 14.38 9.66-3.57 1.33-7.89.74-11.66.74h-22.04c-3.52 0-8.91 1.06-11.76-1.29-.1-7.08 13.49-1.48 15-10.69 1.48-9.03.18-24.34.18-34.03 0-22.89-.02-45.79 0-68.69.01-7.78 0-15.55 0-23.33 0-3.42.72-7.91-1.15-10.99-2.91-4.83-14.53-1.3-13.93-7.81 2.54-2.23 7.78-1.18 11.01-1.17 7.78.02 15.56 0 23.33 0 3.48 0 7.88-.76 11.02.81Zm189.88 43.87c-2.86-4.12-2.67-12.49-4.15-17.59-3.97-13.73-13.96-21.41-28.25-21.58-4.25-.05-9.88-.32-13.25 2.81-4 3.69-3.13 9.99-3.13 14.89v34.35c0 2.92-.99 13.09 1.34 14.69 2 1.38 5.6.7 7.91.7 6.98 0 13.49-.59 16.09-8.11 1.61-4.69.7-15.21 6.59-16.19 3.73 2.5 2.44 8.15 2.44 12.15v32.4c0 3.93 1.38 10.02-2.44 12.41-5.34-.56-5.32-12.02-6.59-16.44-2.69-9.4-7.14-9.72-16.09-9.72-2.26 0-6.25-.81-8.12.76-2.12 1.79-1.13 13.14-1.13 16.23.01 12.31-.02 24.63-.01 36.94.01 5.64-.22 12.63 4.96 16.27 3.37 2.37 8.1 2.72 12.08 2.88 16.89.71 26.37-7.32 30.82-23.04.98-3.47 2.16-16.84 4.66-18.61 1.35-.95 2.76-.44 4.05.17 1.62 3.28.41 8.38.1 11.95-.65 7.74-.79 15.51-1.35 23.26-.24 3.21.76 8.89-2.51 10.89-3.64 2.23-16.21.85-20.87.85H795.5c-6.15 0-14.29 1.44-20.09-.74-1.65-7.53 12.82-2.73 14.37-9.68 1.61-7.19.32-15.92.32-23.27V54.76c0-6.86 1.3-15.24-.34-21.93-1.74-7.09-16.17-2.1-14.35-9.53 4.15-2.07 13.89-.83 18.79-.83 14.48 0 28.95.03 43.42 0 4.32-.01 16.31-1.45 18.79 2.19 1.78 2.62 1.05 7.44 1.27 10.51.46 6.31.48 12.63.87 18.94.21 3.46 1.09 7.54.58 10.98-.38 2.64-2.62 2.47-4.66 2.07ZM958.35 25.6c-3.49 4.44-11.61.64-14.72 5.9-2.34 3.96-.92 11.64-.92 16.13.01 10.59.01 21.17.01 31.76 0 4.68-.93 10.56.54 15 3.28 1.87 7.95 1.04 11.66 1.04h24.63c3.56 0 8.93 1.05 11.9-1.14 1.91-4.04.82-10.43.82-14.9V46.34c0-4.43 1.3-11.62-1.49-15.43-3.32-4.54-11.12-.93-14.27-5.31.75-4.49 5.87-3.12 9.52-3.12h27.22c3.18 0 7.62-1.01 9.72 1.71-.03 6.43-14.15 1.25-14.99 9.85-.95 9.77-.11 19.99-.11 29.79v90.09c0 4.99-.91 11.01.21 15.89 1.65 7.2 14.64 2.71 14.89 9.02-2.12 2.59-6.63 1.65-9.72 1.65h-26.57c-3.26 0-8.2 1.07-10.19-1.94 1.34-6.47 12.76-1.4 15.17-8.34 1.87-5.35.5-15.58.5-21.47 0-8.42-.17-16.86.01-25.27.13-6.57.73-13.57-.31-20.06-2.82-2.58-8.07-1.47-11.66-1.47h-25.28c-3.62 0-8.16-.78-11.47.79-2.19 4.83-.73 12.83-.73 18.14v33.7c0 4.83-1.14 11.43.43 16.03 2.29 6.65 14.04 1.46 15.23 7.95-2.16 3.04-7.24 1.94-10.59 1.94h-26.57c-3.33 0-7.44.89-9.7-1.94 2.39-6.15 13.05-1.53 15.08-8.53 1.29-4.46.39-10.18.39-14.8V63.19c0-7.59 1.24-23.12-.28-29.79-1.75-7.7-13.37-2.48-15.09-9.1 2.23-2.89 6.89-1.82 10.25-1.82h26.57c3.55 0 9.26-1.41 9.91 3.12Zm237.42 0c-3.66 4.51-13.43.4-15.42 7.29-.96 3.3-.34 7.45-.34 10.85v23.33c-.01 17.72-.01 35.43-.01 53.15 0 8.81-1.27 18.79.5 27.45 3.1 15.23 11.02 26.03 27.82 25.99 15.55-.05 25.29-10.66 27.8-25.43 1.58-9.28.65-19.28.65-28.66V69.02c0-8.89 1.53-25.88-.68-33.83-2.77-9.96-10.85-4.21-15.02-9.59.66-4.1 4.62-3.13 7.98-3.13h20.74c3.02 0 6.55-.66 9.01 1.18.9 5.5-8.93 3.8-11.94 7.1-4.09 4.48-2.97 11.97-2.97 17.53v77.77c0 22.16-1.18 46.28-26.15 54.46-4.55 1.49-9.17 1.94-13.96 1.86-22.63-.36-36.71-16.49-39.27-38.18-1.13-9.5-.22-19.59-.22-29.16V58.65c0-7.88.92-16.38-.07-24.19-1.18-9.44-13.66-3.34-15.19-10.16 2.14-2.9 6.75-1.82 10.03-1.83 8.86-.01 17.72 0 26.57 0 3.73 0 9.26-1.42 10.14 3.13Zm244.12 107.95v11c-2.02 5.75-1.43 17.7-1.82 24.27-.19 3.16.61 7.49-1.64 10.04-2.57 2.91-14.89 1.63-18.79 1.63-15.98 0-31.97.02-47.96 0-3.89-.01-14.87 1.16-17.49-1.32-.11-7.04 13.27-1.8 14.74-9.7 1.58-8.4.26-23.91.26-33.05.01-22.68 0-45.37 0-68.05V44.39c0-3.77.77-8.58-.55-12.2-2.19-6.02-14.76-1.65-14.45-8.3 2.37-2.62 14.24-1.42 18.14-1.42h45.37c3.64 0 14.08-1.08 16.72.98 2.67 2.08 2.01 6.25 2.2 9.28.53 8.21.76 16.42 1.23 24.63.19 3.44 1.52 7.71-1.36 10.18-1.18-.05-2.3.1-3.23-.78-1.52-1.44-1.28-4.29-1.58-6.17-.76-4.81-1.6-9.65-3.33-14.23-4.51-11.98-14.18-18.17-26.85-18.36-3.73-.06-7.45-.07-10.99 1.23-5.82 2.14-5.69 8.69-5.69 13.87v35.64c0 4.56-1.27 11.49.81 15.55 2.29 1.69 5.34 1.14 8.09 1.14 6.9 0 13.57-.37 16.3-7.8 1.75-4.77.8-14.94 6.38-16.56 4.06 2.16 2.76 7.57 2.76 11.56v33.05c0 3.98 1.5 10.41-2.76 12.47-4.88-1.12-5.02-11.93-6.22-16.33-2.64-9.69-7.4-9.88-16.46-9.88-2.6 0-5.53-.49-7.86.78-1.66 2.59-1.05 6.04-1.05 9.07v19.44c0 8.86 0 17.72.01 26.57 0 4.75.16 10.27 4.04 13.63 4.16 3.62 11.31 3.85 16.52 3.58 3.76-.2 7.31-.97 10.87-2.15 11.55-3.85 15.37-15.73 17.61-26.47.85-4.05.73-10.08 3.66-13.21 1.46.12 2.92.25 4.37.37ZM1084.06 26.21c-14.5 1.95-21.88 16.15-25.47 28.84-5.4 19.07-5.83 39.62-4.77 59.33.57 10.61 1.11 21.65 4.35 31.85 4.35 13.72 11.82 30.77 28.96 30.49 14.8-.24 23.3-14.7 27.05-27.22 7.59-25.31 7.87-67.79.88-93.26-3.9-14.22-13.27-32.41-31-30.03Zm-519.6 323.64h-20.04c-1.16-1.29-2.96-1.93-4.37-3.04-4.03-3.15-6.67-8.31-6.8-13.38 1.88-.02 3.75-.05 5.62-.07 1.44 4.43 2.8 8.39 7.3 10.57 6.43 3.12 19.78 2.91 20.14-6.61.22-6.01-3.91-8.49-8.93-10.4-9.61-3.66-26.19-7.55-21.38-21.97 3.48-10.45 17.46-12.56 26.43-8.38 4.81 2.23 9.81 8.64 8.72 14.18h-5.23c-2.11-4.09-2.78-8.18-7.74-9.89-6.33-2.17-18.38.02-16.75 9.04.97 5.42 6.8 7.09 11.27 8.69 8.87 3.17 19.26 6.19 19.79 17.43.1 2.26-.36 4.7-1.25 6.78-1.48 3.47-4.52 4.5-6.78 7.05Zm280.62 0h-15.64c-4.07-2.79-8.6-3.53-12.22-7.37-9.63-10.2-9.29-28.63-.26-39.1 7.88-9.13 22.74-11.37 32.77-4.39 4.18 2.9 8.86 8.24 7.98 13.58-1.72-.05-3.45-.11-5.18-.16-1.53-2.96-2.11-5.89-4.88-8.13-3.36-2.72-7.69-3.88-11.97-3.79-14.48.3-21.57 15.47-18.59 28.41 2.68 11.62 12.5 16.83 23.99 15.52 3.15-.36 9.71-1.75 11.08-5.26 1.2-3.08.54-9.05-.09-12.21-4.6-.25-9.2-.5-13.8-.76-.62-1.95-.64-2.97 0-4.93 6.48-.03 12.96-.07 19.44-.1 1.02 3.05 1.6 18.42.05 21.05-2.7 4.56-9.02 4.8-12.68 7.64Zm-342.91 0h-6.38c-2.06-5.19-4.12-10.37-6.18-15.55-7.77 0-15.55.01-23.33.01-2.05 5.18-4.11 10.36-6.17 15.54h-5.83l20.43-52.47c2.37.07 4.75.14 7.13.22 6.77 17.41 13.55 34.83 20.33 52.25Zm147.11 0h-6.42c-.08-8.07-.17-16.13-.26-24.2h-28.72c-.07 8.07-.14 16.13-.22 24.2h-6.34c1.32-12.1.17-24.97.17-37.16 0-4.5-1.29-11.44.72-15.45l4.54-.06c2.71 5.26-.32 15.83.83 21.99 2.14 1.36 5.06.82 7.59.82 6.04 0 15.85 1.29 21.39-.42.21-7.31.43-14.63.64-21.95l5.19-.36c1.42 4.21.61 9.65.61 14.14v25.92c0 4.07-.52 8.54.28 12.53Zm44.16 0h-5.95c-1.54-11.33-.21-23.76-.21-35.21 0-5.36-1.13-12.32.64-17.32 1.73.09 3.46.19 5.19.29zm81.03 0h-7.15c-1.2-3.85-4.62-7.49-6.9-10.81-4.75-6.93-9.46-13.88-14.16-20.84-2.03-3-4.57-8.55-7.79-9.91l.27 41.56h-6.34c.93-3.9.31-8.52.31-12.53v-26.57c0-4.29-.75-9.42.58-13.45 1.79-.05 3.58-.11 5.38-.16 9.87 14.03 19.74 28.06 29.61 42.1.22-13.88.43-27.76.65-41.63 1.73-.03 3.46-.06 5.18-.08zm138.02 0h-5.88l-.33-46.88c-5.85-.22-11.7-.43-17.55-.65-.54-1.99-.58-3.05.09-4.99 13.83.01 27.65.02 41.48.02l.03 4.97-17.53.69c-.1 15.61-.21 31.22-.31 46.84Zm80.28 0h-15.45c-1.16-1.16-2.88-1.56-4.36-2.38-4.06-2.27-7.68-6.18-9.67-10.37-8.04-16.89.98-39.96 21.44-40.07 20.83-.1 30.58 23.17 21.92 40.49-2.02 4.04-5.57 7.72-9.51 9.93-1.48.84-3.21 1.23-4.37 2.4Zm96.53 0h-7.07l-28.8-41.88-.3 41.88h-5.84c.1-17.38.2-34.77.31-52.15 1.94-.17 3.89-.35 5.83-.52 9.72 14.15 19.44 28.3 29.16 42.46 1.72-2.88.7-8.03.7-11.4 0-7.18-1.39-25 .6-30.86l4.56-.24c1.84 4.22.63 10.91.63 15.55 0 11.29-1.33 26.33.22 37.16Zm-675.21 0h-7.81c-4.19-14.61-8.39-29.22-12.58-43.83-2.92 2.57-3.58 9.4-4.69 13.19-1.88 6.41-3.77 12.83-5.56 19.26-1.04 3.72-2.84 7.53-3.1 11.38h-8.26c-4.81-17.36-9.62-34.71-14.42-52.06 1.64-.13 3.28-.27 4.92-.4 2.49 3.67 3.26 9.03 4.39 13.29 1.87 7.02 3.96 14.02 6.07 20.99.94 3.09 1.57 8.96 3.8 10.94 4.32-14.91 8.64-29.82 12.96-44.72 2.35-.04 4.7-.07 7.05-.1 3.74 7.51 6.7 22.28 9.11 30.87 1.14 4.09 1.73 11 4.58 14.08 4.43-14.98 8.87-29.97 13.3-44.95h5.07c-4.94 17.35-9.89 34.7-14.83 52.06Zm566.26-46.94c-22.35 4.47-16.6 46.23 7.1 42.11 24.88-4.32 20.41-47.62-7.1-42.11Zm-502.4.3c-3.24 8.37-6.48 16.73-9.72 25.1 4.36 1.12 15.04 1.27 19.3-.07-3.2-8.34-6.39-16.69-9.58-25.03Z"/>
</svg>